<?xml version="1.0" standalone="no"?>
<!DOCTYPE svg PUBLIC "-//W3C//DTD SVG 20010904//EN"
 "http://www.w3.org/TR/2001/REC-SVG-20010904/DTD/svg10.dtd">
<svg version="1.0" xmlns="http://www.w3.org/2000/svg"
 width="782.000000pt" height="782.000000pt" viewBox="0 0 782.000000 782.000000"
 preserveAspectRatio="xMidYMid meet">

<g transform="translate(0.000000,782.000000) scale(0.100000,-0.100000)"
fill="#f8f7ff" stroke="none">
<path d="M2564 6137 l-1227 -1223 5 -57 c6 -71 31 -96 98 -97 l45 0 1178 1180
c648 649 1183 1180 1189 1180 6 0 540 -529 1187 -1176 646 -647 1186 -1180
1198 -1185 51 -19 113 16 126 70 16 65 42 37 -1212 1291 -663 664 -1217 1214
-1231 1223 -15 11 -44 17 -77 17 l-53 0 -1226 -1223z"/>
<path d="M3590 6429 c-74 -3 -136 -7 -137 -8 -2 0 -3 -63 -3 -140 l0 -138 46
-7 c26 -3 91 -6 145 -6 l99 0 0 149 c0 83 -3 151 -7 153 -5 2 -69 0 -143 -3z"/>
<path d="M4020 6430 c-74 -4 -136 -8 -137 -9 -2 0 -3 -63 -3 -140 l0 -138 46
-7 c26 -3 94 -6 151 -6 l104 0 -3 152 c-2 91 -7 152 -13 153 -5 1 -71 -2 -145
-5z"/>
<path d="M3483 6003 l-33 -4 0 -145 0 -144 145 0 145 0 0 150 0 150 -112 -2
c-62 0 -128 -3 -145 -5z"/>
<path d="M3917 6003 l-38 -4 3 -142 3 -142 148 -3 148 -3 -3 148 -3 148 -110
1 c-60 1 -127 -1 -148 -3z"/>
<path d="M3680 5577 c-14 -6 -63 -29 -110 -50 -47 -22 -102 -42 -123 -45 -21
-2 -41 -11 -44 -18 -2 -7 5 -34 18 -61 14 -30 23 -71 24 -108 1 -33 5 -73 10
-88 6 -22 2 -39 -15 -69 -20 -36 -21 -42 -8 -52 10 -8 14 -27 13 -66 -1 -52
20 -119 38 -120 11 0 8 48 -4 56 -6 3 -9 15 -6 25 3 10 1 22 -4 25 -14 9 -10
34 7 41 19 7 74 -44 74 -70 0 -10 -12 -34 -27 -53 -22 -30 -24 -37 -12 -46 11
-8 11 -9 -3 -4 -13 4 -18 0 -18 -14 0 -24 11 -30 68 -39 61 -8 61 -29 2 -58
-67 -35 -121 -30 -221 16 -140 65 -213 70 -332 21 l-56 -23 -66 21 c-77 26
-138 28 -188 7 -56 -23 -70 -20 -64 13 23 115 68 215 131 291 56 68 74 77 121
60 21 -8 45 -25 53 -37 9 -13 39 -37 69 -54 29 -16 56 -34 59 -39 11 -19 79
-9 109 16 17 13 24 24 16 25 -8 0 -11 6 -7 15 3 9 -1 35 -9 58 -8 23 -15 61
-15 84 0 52 -16 62 -140 91 -120 28 -161 33 -191 25 -29 -9 -233 -187 -380
-333 -82 -81 -218 -260 -276 -363 -31 -53 -5 -97 84 -144 122 -65 210 -96 372
-134 121 -27 184 -25 283 11 45 17 95 30 110 30 35 0 43 -17 56 -126 7 -58 20
-103 50 -167 50 -105 64 -146 104 -297 62 -229 93 -432 85 -546 -3 -46 -1 -76
6 -83 7 -7 86 -11 247 -10 140 0 227 4 215 9 -11 5 -33 9 -49 9 -22 1 -39 12
-65 43 -20 23 -58 64 -84 90 -48 46 -53 68 -18 68 9 0 52 -23 96 -51 78 -51
141 -79 177 -79 37 0 97 41 144 97 49 61 52 49 9 -37 -34 -66 -100 -120 -147
-120 -18 -1 -20 -2 -8 -9 35 -21 267 69 345 132 l29 25 -1 238 c-1 265 0 275
70 373 77 107 112 185 123 273 8 57 41 98 79 98 14 0 47 -11 73 -24 66 -34
119 -39 254 -27 157 15 349 65 438 114 50 27 120 98 120 121 0 11 -21 49 -47
85 -27 36 -60 84 -76 107 -62 92 -144 179 -264 283 -71 60 -151 136 -180 169
-45 51 -58 60 -102 69 -28 5 -67 7 -88 3 -32 -7 -34 -8 -10 -9 15 0 39 -12 53
-26 21 -21 23 -28 13 -44 -14 -21 -68 -56 -75 -48 -3 3 0 14 8 26 19 30 0 44
-40 30 -39 -13 -102 -4 -102 16 0 7 8 16 18 19 9 3 -3 3 -27 0 -63 -7 -79 -19
-105 -77 -38 -85 -40 -103 -10 -126 29 -23 63 -36 72 -27 3 3 -3 12 -13 20
-12 9 -16 20 -12 37 3 13 11 45 17 72 12 47 40 67 40 27 0 -11 5 -20 10 -20 6
0 10 7 10 15 0 8 4 15 10 15 18 0 25 -29 22 -90 -4 -66 -23 -89 -47 -56 -10
13 -14 14 -18 3 -7 -18 11 -37 36 -37 22 0 77 30 77 42 0 4 7 8 17 8 9 0 33
18 53 40 35 37 39 39 68 29 38 -13 122 -101 151 -157 23 -45 47 -220 32 -235
-5 -5 -19 -3 -32 4 -35 18 -147 16 -201 -5 -55 -21 -84 -18 -183 19 -84 31
-138 28 -246 -12 l-71 -26 -54 28 c-35 18 -56 36 -58 49 -2 12 -9 48 -15 82
-6 33 -11 76 -11 95 0 35 28 150 49 204 7 16 10 46 7 65 -4 25 -3 29 3 15 l9
-20 8 20 c11 26 9 79 -4 135 -19 83 -84 110 -182 75 -23 -8 -75 -15 -114 -15
-68 0 -70 1 -41 14 47 21 168 46 224 46 29 0 66 -7 82 -16 37 -19 61 -71 53
-113 -4 -20 -2 -31 5 -31 7 0 11 22 11 60 0 54 -3 64 -35 98 -52 58 -106 92
-172 107 -70 17 -178 18 -213 2z m167 -19 l28 -11 -35 -8 c-19 -4 -75 -21
-123 -38 -88 -31 -170 -40 -182 -21 -3 6 1 10 10 10 8 0 39 12 68 26 106 54
175 67 234 42z m-207 -191 c0 -8 -17 -38 -38 -68 -37 -53 -39 -54 -90 -56 -42
-2 -52 0 -52 13 0 13 28 83 34 84 0 0 26 9 56 20 66 23 90 24 90 7z m177 -9
c63 2 75 -1 100 -23 l28 -24 -35 9 c-61 17 -98 -7 -123 -80 l-16 -45 -1 62 c0
59 -1 62 -35 83 -38 24 -49 48 -13 29 12 -7 55 -11 95 -11z m-808 -47 c120
-29 129 -40 51 -65 -43 -14 -53 -14 -82 -2 -18 7 -58 21 -89 31 -75 23 -89 32
-69 45 24 15 102 12 189 -9z m-211 -43 c25 -25 12 -58 -48 -124 -33 -36 -60
-70 -60 -74 0 -5 -16 -43 -35 -85 -22 -47 -38 -99 -42 -137 -5 -51 -11 -66
-40 -94 -18 -19 -46 -36 -61 -40 -103 -23 -137 -39 -164 -81 -38 -56 -82 -67
-115 -29 -13 15 -23 35 -23 45 0 10 27 56 60 102 98 138 89 131 90 82 0 -24 5
-43 10 -43 6 0 10 9 10 20 0 26 28 96 58 144 l24 39 16 -33 16 -32 16 48 c27
83 46 109 157 208 60 53 110 96 114 96 3 0 10 -5 17 -12z m1110 -18 c38 -23
41 -52 13 -109 -29 -56 -46 -67 -76 -51 -35 19 -33 44 1 36 49 -13 89 61 50
93 -19 16 -66 -6 -66 -31 0 -27 -24 -17 -28 11 -4 26 33 71 57 71 9 0 31 -9
49 -20z m-971 -31 c7 -6 13 -20 13 -30 0 -15 -4 -17 -29 -8 -35 12 -71 45 -71
65 0 12 5 12 37 -1 20 -9 42 -20 50 -26z m153 0 c11 -20 12 -20 25 -2 13 17
14 16 25 -12 6 -16 14 -53 17 -81 5 -47 4 -52 -16 -59 -30 -9 -33 -4 -19 33
10 25 10 34 0 44 -9 9 -12 7 -12 -11 0 -29 -17 -61 -33 -61 -8 0 -12 25 -12
85 0 87 6 101 25 64z m-70 -19 c11 -11 20 -28 20 -37 0 -10 3 -28 6 -40 5 -20
2 -23 -20 -23 -20 0 -27 5 -25 18 2 9 -1 28 -5 42 -16 53 -17 60 -7 60 6 0 20
-9 31 -20z m1919 -207 c24 -38 31 -44 36 -30 6 14 13 12 51 -20 34 -28 56 -59
94 -139 56 -118 76 -139 65 -73 -6 40 -5 42 7 24 8 -11 38 -64 66 -117 50 -94
51 -97 25 -87 -50 19 -191 109 -241 154 -27 24 -62 69 -77 100 -16 30 -69 99
-118 153 -120 131 -117 126 -110 195 l6 57 83 -85 c46 -47 97 -106 113 -132z
m-1423 120 c28 -11 13 -21 -28 -20 -24 1 -42 4 -42 7 1 3 12 28 25 55 l24 50
3 -43 c2 -26 9 -45 18 -49z m182 44 c34 1 62 -1 62 -5 0 -3 -18 -44 -41 -90
-34 -69 -48 -88 -87 -113 -25 -16 -48 -27 -50 -24 -3 2 8 30 22 62 30 61 28
70 -15 125 -29 36 -19 63 19 52 15 -5 55 -8 90 -7z m687 -34 c-4 -21 -11 -53
-17 -71 -8 -27 -12 -31 -24 -21 -16 13 -19 59 -4 59 6 0 10 5 10 10 0 12 30
60 37 60 2 0 1 -17 -2 -37z m170 -24 c-5 -22 -3 -29 9 -29 24 0 19 -27 -6 -35
-39 -13 -42 -11 -49 27 -4 29 -1 42 13 58 25 26 41 16 33 -21z m-570 -345 c5
-21 2 -41 -9 -60 l-15 -29 -1 42 c0 23 -4 44 -8 47 -4 2 -18 -17 -30 -44 -23
-50 -42 -72 -42 -48 0 40 34 205 58 278 l27 85 7 -120 c3 -66 9 -134 13 -151z
m-95 156 c-10 -41 -26 -100 -34 -130 -9 -30 -18 -81 -22 -112 -6 -56 -6 -56
-33 -45 -14 6 -40 21 -58 34 -17 13 -49 29 -70 36 -41 13 -42 16 -27 100 6 36
15 42 54 38 8 -1 29 -18 46 -38 l31 -35 21 36 c12 20 26 53 32 74 9 36 67 128
75 120 2 -2 -5 -37 -15 -78z m-103 16 c-20 -30 -177 -81 -177 -57 0 6 8 11 18
11 35 0 113 35 139 62 30 32 44 21 20 -16z m-209 -73 c-10 -2 -28 -2 -40 0
-13 2 -5 4 17 4 22 1 32 -1 23 -4z m1375 -81 c24 -37 62 -82 84 -100 53 -41
160 -164 136 -155 -10 3 -62 38 -115 77 -81 59 -102 80 -122 121 -22 48 -42
125 -32 125 3 0 25 -31 49 -68z m-1716 17 c15 -5 56 -28 90 -50 76 -50 101
-57 241 -68 120 -10 159 -24 195 -74 19 -24 21 -43 23 -194 2 -181 -2 -200
-52 -247 -36 -33 -114 -56 -190 -56 -76 0 -122 17 -152 55 -26 33 -21 46 8 20
26 -23 25 -9 0 33 -12 19 -25 57 -31 85 -12 65 -27 88 -92 136 -67 49 -76 64
-116 181 -25 74 -40 102 -68 127 l-35 32 33 15 c41 17 107 20 146 5z m-360
-29 c32 -11 70 -20 85 -20 75 0 157 -70 173 -148 7 -32 6 -33 -13 -23 -28 15
-62 14 -96 -4 -20 -11 -60 -15 -138 -15 l-109 0 -58 54 c-31 30 -69 62 -85 70
l-28 14 27 18 c25 17 28 17 37 1 19 -35 128 -66 128 -37 0 6 -12 10 -26 10
-15 0 -38 12 -56 31 -29 29 -30 31 -12 43 43 30 97 32 171 6z m-327 -75 c-19
-22 -66 -46 -122 -61 -95 -25 -59 18 42 50 30 10 62 22 70 26 21 12 26 4 10
-15z m1885 -11 c36 -9 65 -22 65 -28 0 -6 -16 -34 -36 -61 -20 -28 -58 -95
-85 -150 -34 -70 -61 -110 -87 -132 -21 -18 -50 -49 -64 -70 -13 -21 -37 -57
-53 -81 -43 -64 -66 -73 -180 -65 -99 6 -145 25 -145 59 0 8 -5 14 -10 14 -7
0 -8 -18 -4 -50 10 -79 0 -89 -41 -44 -40 43 -40 43 -21 89 11 24 21 35 36 35
21 0 21 2 18 169 -3 169 -3 169 22 196 38 41 67 52 175 65 55 7 133 25 175 41
87 32 145 36 235 13z m362 1 c56 -17 143 -62 143 -75 0 -12 -75 -77 -112 -96
-25 -14 -67 -19 -183 -24 -111 -4 -158 -9 -182 -22 -20 -10 -33 -12 -33 -6 0
20 68 94 104 113 36 19 47 35 24 35 -19 0 21 37 60 56 74 35 111 39 179 19z
m-2101 -97 l79 -53 -63 -11 c-34 -6 -66 -14 -69 -18 -13 -12 165 -6 220 9 95
25 167 16 167 -20 0 -38 -171 -104 -270 -105 -96 0 -270 61 -395 138 l-39 25
39 12 c36 10 59 20 155 63 54 24 93 15 176 -40z m2421 -82 l73 -33 -61 -28
c-47 -21 -70 -26 -104 -23 -43 5 -43 5 -23 -11 21 -17 21 -17 -13 -32 -56 -23
-154 -17 -238 17 -41 16 -74 34 -73 39 1 6 26 13 56 16 29 3 85 21 122 39 142
68 143 68 261 16z m-1867 -117 c28 -53 29 -242 3 -288 -10 -17 -21 -31 -24
-31 -8 0 -50 64 -78 117 -28 57 -27 95 8 162 17 31 32 64 35 73 8 26 34 11 56
-33z m1119 -138 c-18 -76 -32 -108 -86 -191 -35 -55 -66 -113 -69 -130 -4 -16
-10 -30 -15 -30 -8 0 -40 64 -54 108 -8 29 10 84 36 108 11 10 32 43 46 72 20
42 37 61 79 88 29 19 58 44 65 55 20 39 20 11 -2 -80z m-1011 -93 c6 -15 31
-48 56 -74 26 -26 46 -49 46 -51 0 -2 -18 -3 -39 -3 -61 0 -98 37 -106 104 -4
30 -4 69 0 87 l7 33 13 -35 c7 -19 17 -46 23 -61z m672 -108 c19 -5 25 -13 25
-36 0 -26 -8 -33 -92 -76 -91 -47 -92 -47 -115 -29 -21 17 -22 22 -10 53 6 19
12 41 12 50 0 48 79 65 180 38z m-258 -7 c14 -12 18 -31 18 -78 0 -83 -14 -96
-101 -93 -35 1 -89 -1 -120 -6 -51 -8 -58 -6 -77 15 -42 44 -19 89 60 119 44
17 87 34 118 48 37 16 81 14 102 -5z m-392 -38 c46 -10 70 -32 70 -66 0 -34
-13 -44 -31 -23 -17 20 -83 54 -107 54 -26 0 -42 20 -42 52 l0 28 38 -19 c20
-10 53 -22 72 -26z m-106 -84 c3 -4 34 -22 68 -38 67 -32 91 -54 102 -90 9
-29 -12 -31 -47 -3 -14 11 -46 29 -73 40 -53 23 -73 44 -74 78 0 22 14 30 24
13z m895 -63 c1 -20 -44 -76 -54 -66 -6 6 18 88 32 112 7 11 21 -19 22 -46z
m-107 -3 c-6 -71 -20 -86 -102 -112 -103 -31 -107 -31 -120 19 -10 36 -9 44 8
67 20 27 67 47 142 61 70 12 75 10 72 -35z m-292 -45 c22 -22 25 -48 10 -100
-15 -51 -43 -66 -137 -74 -88 -8 -88 -8 -109 49 -6 17 -15 38 -18 47 -11 24
27 58 67 59 17 0 52 8 77 19 60 24 86 24 110 0z m-436 -29 c10 -11 39 -28 65
-39 26 -12 54 -29 64 -40 21 -23 46 -144 55 -267 8 -94 26 -135 73 -169 18
-12 15 -14 -43 -21 -35 -3 -85 -7 -113 -8 -69 -3 -76 13 -74 173 1 132 -13
206 -51 277 -23 44 -27 113 -7 113 8 0 22 -9 31 -19z m856 -80 c0 -33 -4 -61
-8 -63 -5 -1 -15 -16 -23 -33 -8 -18 -23 -31 -37 -33 -30 -4 -28 14 6 80 16
30 32 66 36 81 11 47 26 29 26 -32z m-87 -8 c-4 -10 -21 -41 -39 -70 -47 -74
-157 -126 -192 -91 -16 16 -15 83 1 96 6 5 43 12 80 14 60 4 71 8 100 36 35
35 60 43 50 15z m-304 -82 c10 -6 12 -22 9 -55 -6 -50 -30 -86 -58 -86 -9 0
-25 -7 -36 -15 -31 -24 -69 -19 -90 13 -9 15 -31 39 -46 54 -25 23 -27 30 -18
48 8 14 21 20 48 20 20 1 64 7 97 14 75 17 77 18 94 7z m242 -109 c-18 -15
-55 -48 -82 -74 -49 -47 -66 -48 -55 -2 4 16 25 34 60 54 29 17 61 39 71 50
13 15 22 17 29 10 8 -8 1 -19 -23 -38z m146 -50 c-2 -54 -5 -60 -43 -95 -60
-53 -86 -47 -45 11 10 15 22 38 26 52 7 23 51 90 60 90 2 0 3 -26 2 -58z
m-397 -52 c10 -7 -8 -9 -60 -9 -56 1 -67 3 -45 9 44 11 88 11 105 0z"/>
<path d="M3590 4613 c0 -11 108 -48 116 -40 3 3 -5 13 -19 22 -30 19 -97 32
-97 18z"/>
<path d="M3440 4226 c0 -18 38 -46 62 -46 23 0 23 29 1 46 -24 18 -63 18 -63
0z"/>
<path d="M3980 4573 c-42 -7 -80 -25 -80 -38 0 -10 9 -11 35 -4 19 5 50 13 68
18 19 4 42 13 53 19 16 10 14 11 -16 10 -19 0 -46 -3 -60 -5z"/>
<path d="M4157 4242 c-22 -24 -21 -32 3 -32 20 0 44 32 33 44 -10 10 -19 7
-36 -12z"/>
<path d="M4510 5230 c0 -5 6 -10 14 -10 8 0 18 5 21 10 3 6 -3 10 -14 10 -12
0 -21 -4 -21 -10z"/>
<path d="M3213 5125 c0 -40 2 -43 14 -26 11 16 11 23 0 45 -13 24 -14 24 -14
-19z"/>
<path d="M4432 5050 c0 -14 2 -19 5 -12 2 6 2 18 0 25 -3 6 -5 1 -5 -13z"/>
<path d="M5278 3017 c-25 -7 -58 -21 -72 -30 -94 -62 -114 -228 -39 -317 l25
-30 116 0 c189 0 275 -31 274 -97 -1 -110 -23 -562 -33 -667 -10 -121 -10
-130 8 -155 11 -14 31 -29 44 -32 31 -9 287 -9 319 0 47 12 57 53 64 263 6
151 4 226 -9 347 -25 225 -17 269 57 307 33 17 159 22 243 10 57 -8 63 -6 92
18 84 71 62 297 -36 363 -63 43 -206 39 -419 -12 -138 -33 -197 -32 -303 5
-104 36 -255 48 -331 27z"/>
<path d="M3730 2980 c-63 -14 -119 -19 -215 -18 -71 1 -162 2 -201 2 -78 1
-102 -11 -129 -65 -26 -49 -37 -186 -28 -334 9 -157 10 -409 3 -620 -6 -164
-1 -178 77 -216 38 -19 68 -25 144 -27 111 -4 147 8 180 61 18 29 20 43 15
147 -3 63 -8 140 -12 170 -4 41 -3 59 7 67 8 6 80 15 162 21 112 8 155 15 179
29 91 53 94 203 5 250 -36 19 -164 24 -278 10 -59 -6 -69 -5 -100 16 -58 39
-75 129 -34 171 45 45 200 49 391 10 150 -31 171 -28 200 28 23 44 44 125 44
170 0 50 -45 101 -108 123 -72 26 -201 28 -302 5z"/>
<path d="M1277 2973 c-4 -3 -7 -43 -7 -89 l0 -82 80 -3 c47 -3 84 -9 92 -17
10 -10 14 -102 16 -413 l3 -399 -26 -24 c-24 -22 -32 -24 -96 -19 l-69 6 0
-92 0 -93 543 5 c440 3 555 7 612 20 159 35 244 86 286 173 18 37 22 62 20
126 0 43 -8 94 -15 113 -8 19 -12 35 -9 35 3 0 -6 9 -20 21 -15 11 -26 26 -24
32 1 7 -3 11 -9 10 -7 -1 -24 9 -38 22 -15 14 -29 24 -31 24 -5 0 -93 31 -135
48 -8 3 -26 7 -39 9 -39 5 -34 10 28 33 179 65 264 203 211 343 -10 27 -15 48
-12 48 4 0 -1 5 -11 11 -9 6 -14 16 -11 22 4 7 4 9 -1 5 -11 -11 -36 12 -28
25 3 6 1 7 -6 3 -6 -4 -14 -1 -17 7 -2 7 -10 14 -17 15 -7 1 -44 12 -82 26
-117 41 -318 56 -781 56 -220 0 -404 -3 -407 -7z m873 -201 c43 -21 70 -71 70
-130 0 -59 -21 -104 -65 -138 -35 -26 -45 -29 -136 -31 l-99 -2 0 158 c0 118
3 161 13 165 24 11 181 -4 217 -22z m-30 -473 c99 -21 148 -95 137 -205 -7
-68 -30 -111 -75 -137 -48 -28 -51 -29 -164 -33 l-98 -3 0 195 0 194 75 0 c40
0 97 -5 125 -11z"/>
<path d="M4515 2964 c-121 -31 -162 -64 -173 -140 -8 -57 2 -245 18 -317 15
-72 13 -277 -5 -432 -18 -157 -18 -208 -4 -277 30 -138 211 -199 374 -124 103
47 122 111 109 381 -10 192 -9 453 1 678 l6 138 -30 28 c-17 16 -53 37 -79 45
-48 17 -181 29 -217 20z"/>
</g>
</svg>
